<?xml version="1.0" encoding="UTF-8"?>
<svg version="1.1" xmlns="http://www.w3.org/2000/svg" width="256" height="256">
<path d="M0 0 C0.7007666 0.00054382 1.4015332 0.00108765 2.12353516 0.00164795 C29.12079025 0.09762795 52.86498071 8.13059378 75.390625 22.9921875 C77.43568438 24.39132511 77.43568438 24.39132511 79.5 25.375 C81.19811804 27.01754327 82.85392504 28.68135062 84.5 30.375 C87.03648061 32.96347495 89.5798496 35.54505262 92.125 38.125 C92.79273438 38.80949219 93.46046875 39.49398437 94.1484375 40.19921875 C94.79296875 40.85019531 95.4375 41.50117187 96.1015625 42.171875 C96.68244629 42.76323242 97.26333008 43.35458984 97.86181641 43.96386719 C99.55745429 45.60502043 99.55745429 45.60502043 102.5 46.375 C102.83 47.365 103.16 48.355 103.5 49.375 C104.16 49.705 104.82 50.035 105.5 50.375 C105.83 51.365 106.16 52.355 106.5 53.375 C107.09425781 53.95636719 107.68851563 54.53773437 108.30078125 55.13671875 C110.98205587 57.86561814 112.80729289 60.88920048 114.6875 64.1875 C115.04263672 64.77853516 115.39777344 65.36957031 115.76367188 65.97851562 C118.20006465 70.21793151 119.09006206 73.59646966 119.5 78.375 C120.16 78.375 120.82 78.375 121.5 78.375 C122.36762314 80.62061282 123.2192103 82.87026255 124.0625 85.125 C124.4327832 86.07632813 124.4327832 86.07632813 124.81054688 87.046875 C126.14005655 90.64216877 126.60802053 92.7308436 125.5 96.375 C126.49 97.86 126.49 97.86 127.5 99.375 C127.83 99.375 128.16 99.375 128.5 99.375 C128.54632915 106.88541694 128.58187214 114.39581906 128.60362434 121.90634632 C128.61406404 125.39375161 128.62822649 128.88105916 128.65087891 132.3684082 C128.67675512 136.37712546 128.68647123 140.38573997 128.6953125 144.39453125 C128.70563507 145.64772659 128.71595764 146.90092194 128.72659302 148.1920929 C128.72674408 149.35306992 128.72689514 150.51404694 128.72705078 151.71020508 C128.731492 152.73390701 128.73593323 153.75760895 128.74050903 154.81233215 C128.5 157.375 128.5 157.375 126.5 160.375 C126.5 160.705 126.5 161.035 126.5 161.375 C125.51164539 167.44466006 124.15577781 172.82201003 121.5 178.375 C120.84 178.375 120.18 178.375 119.5 178.375 C119.41363281 178.931875 119.32726562 179.48875 119.23828125 180.0625 C118.16835859 185.87345609 116.37678079 190.81481233 112.5 195.375 C111.84 195.375 111.18 195.375 110.5 195.375 C110.3453125 196.5196875 110.3453125 196.5196875 110.1875 197.6875 C109.4309017 200.64511154 108.68227175 201.36730999 106.5 203.375 C106.149375 204.07625 105.79875 204.7775 105.4375 205.5 C104.5 207.375 104.5 207.375 102.5 208.375 C102.21125 209.014375 101.9225 209.65375 101.625 210.3125 C100.23235464 212.86568317 99.06302772 213.10463995 96.5 214.375 C94.82163793 215.75084115 94.82163793 215.75084115 93.265625 217.34375 C92.69199219 217.91480469 92.11835938 218.48585937 91.52734375 219.07421875 C90.94082031 219.66847656 90.35429687 220.26273438 89.75 220.875 C89.14800781 221.46925781 88.54601562 222.06351563 87.92578125 222.67578125 C87.35730469 223.24683594 86.78882813 223.81789062 86.203125 224.40625 C85.42437012 225.18838867 85.42437012 225.18838867 84.62988281 225.98632812 C83.28962453 227.33518269 83.28962453 227.33518269 83.5 229.375 C82.9225 229.4575 82.345 229.54 81.75 229.625 C78.86595852 230.58634716 77.56318353 232.17870785 75.5 234.375 C74.51 235.035 73.52 235.695 72.5 236.375 C72.17 237.035 71.84 237.695 71.5 238.375 C70.80261719 238.50519531 70.10523438 238.63539063 69.38671875 238.76953125 C65.66489252 239.55015786 62.63076062 241.28234016 59.3125 243.0625 C50.66240772 247.52308032 41.85413602 250.72602212 32.5 253.375 C31.32179687 253.71660156 30.14359375 254.05820313 28.9296875 254.41015625 C-6.40085198 262.75748151 -41.98149816 253.40866018 -72.5 235.375 C-73.16 235.045 -73.82 234.715 -74.5 234.375 C-75.304375 233.55 -76.10875 232.725 -76.9375 231.875 C-79.31120237 229.19563363 -79.31120237 229.19563363 -82.5 228.375 C-83.91259388 226.76060699 -85.31925902 225.14043224 -86.6875 223.48828125 C-88.74773247 221.08615675 -90.90746426 218.82015563 -93.125 216.5625 C-93.85976562 215.81355469 -94.59453125 215.06460938 -95.3515625 214.29296875 C-97.3738784 212.31193464 -97.3738784 212.31193464 -99.7109375 211.30078125 C-101.5 210.375 -101.5 210.375 -102.5 207.375 C-103.16 207.045 -103.82 206.715 -104.5 206.375 C-104.83 205.385 -105.16 204.395 -105.5 203.375 C-106.49 202.4159375 -106.49 202.4159375 -107.5 201.4375 C-109.63836055 199.23231569 -109.84910144 198.25755079 -110.5 195.375 C-110.933125 194.941875 -111.36625 194.50875 -111.8125 194.0625 C-116.40343906 189.47156094 -117.98836352 184.64254687 -118.5 178.375 C-119.16 178.375 -119.82 178.375 -120.5 178.375 C-121.36762314 176.12938718 -122.2192103 173.87973745 -123.0625 171.625 C-123.4327832 170.67367187 -123.4327832 170.67367187 -123.81054688 169.703125 C-125.08197079 166.26490821 -125.96686355 163.85331118 -124.5 160.375 C-125.16 160.375 -125.82 160.375 -126.5 160.375 C-127.44191474 153.25360308 -127.63161552 146.29935458 -127.59765625 139.12109375 C-127.5962413 137.97963394 -127.59482635 136.83817413 -127.59336853 135.66212463 C-127.58780751 132.04555551 -127.57526231 128.42905016 -127.5625 124.8125 C-127.55747996 122.34830819 -127.55291794 119.8841154 -127.54882812 117.41992188 C-127.53785087 111.40492646 -127.52115194 105.38996779 -127.5 99.375 C-126.84 99.375 -126.18 99.375 -125.5 99.375 C-125.355625 98.364375 -125.21125 97.35375 -125.0625 96.3125 C-124.876875 95.013125 -124.69125 93.71375 -124.5 92.375 C-124.37625 91.22 -124.2525 90.065 -124.125 88.875 C-123.42355132 84.94688737 -122.18938 81.97411391 -120.5 78.375 C-119.84 78.375 -119.18 78.375 -118.5 78.375 C-118.41363281 77.818125 -118.32726562 77.26125 -118.23828125 76.6875 C-117.16835859 70.87654391 -115.37678079 65.93518767 -111.5 61.375 C-110.84 61.375 -110.18 61.375 -109.5 61.375 C-109.396875 60.611875 -109.29375 59.84875 -109.1875 59.0625 C-108.4309017 56.10488846 -107.68227175 55.38269001 -105.5 53.375 C-105.149375 52.67375 -104.79875 51.9725 -104.4375 51.25 C-103.5 49.375 -103.5 49.375 -101.5 48.375 C-101.17 47.385 -100.84 46.395 -100.5 45.375 C-99.18557664 44.6717835 -97.84927629 44.00877891 -96.5 43.375 C-94.78807964 41.93507039 -94.78807964 41.93507039 -93.1875 40.2578125 C-92.58679688 39.65066406 -91.98609375 39.04351562 -91.3671875 38.41796875 C-90.75101563 37.78503906 -90.13484375 37.15210938 -89.5 36.5 C-88.88382813 35.87480469 -88.26765625 35.24960937 -87.6328125 34.60546875 C-85.17148823 32.1071718 -82.71835697 29.60661436 -80.3125 27.0546875 C-78.43070245 25.31078029 -76.81701222 24.4480075 -74.5 23.375 C-72.53461822 22.15713522 -70.57715246 20.92645961 -68.625 19.6875 C-58.59833838 13.48786246 -48.6658971 8.48886401 -37.375 5.0625 C-36.57634521 4.81999512 -35.77769043 4.57749023 -34.95483398 4.32763672 C-23.35782034 0.98926335 -12.04525115 -0.0353139 0 0 Z M120.5 81.375 C121.5 83.375 121.5 83.375 121.5 83.375 Z M-121.5 83.375 C-120.5 86.375 -120.5 86.375 -120.5 86.375 Z M121.5 83.375 C122.5 86.375 122.5 86.375 122.5 86.375 Z M-122.5 86.375 C-121.5 88.375 -121.5 88.375 -121.5 88.375 Z M122.5 86.375 C123.5 88.375 123.5 88.375 123.5 88.375 Z M-126.5 152.375 C-125.5 156.375 -125.5 156.375 -125.5 156.375 Z M126.5 152.375 C127.5 156.375 127.5 156.375 127.5 156.375 Z M-122.5 168.375 C-121.5 170.375 -121.5 170.375 -121.5 170.375 Z M122.5 168.375 C123.5 170.375 123.5 170.375 123.5 170.375 Z M-121.5 170.375 C-120.5 173.375 -120.5 173.375 -120.5 173.375 Z M121.5 170.375 C122.5 173.375 122.5 173.375 122.5 173.375 Z " fill="#222222" transform="translate(127.5,-0.375)"/>
<path d="M0 0 C10.36739388 4.65147489 18.36528898 10.73007661 26.77734375 18.24609375 C30.03653432 16.7827837 32.49400908 14.9243973 35.21484375 12.62109375 C45.50503244 4.28877282 56.63994627 -3.60814662 70.359375 -3.09765625 C76.96272251 -2.15889279 81.46696531 1.23010399 85.52734375 6.3828125 C92.86554108 17.3213129 91.67952577 31.15125244 89.35546875 43.53515625 C88.58771639 47.1352923 87.73436145 50.69145658 86.77734375 54.24609375 C87.38578125 54.36984375 87.99421875 54.49359375 88.62109375 54.62109375 C103.8597477 58.20665938 119.09575103 65.90828348 127.77734375 79.24609375 C130.14812529 83.98765683 129.67601215 91.49147975 128.05859375 96.44921875 C127.08984375 98.18359375 127.08984375 98.18359375 124.77734375 101.24609375 C123.81828125 102.70015625 123.81828125 102.70015625 122.83984375 104.18359375 C114.94565738 113.20895927 99.42479307 120.07760694 87.77734375 122.24609375 C87.91736816 122.80554688 88.05739258 123.365 88.20166016 123.94140625 C89.89616898 131.39664579 90.14419687 138.62061235 90.15234375 146.24609375 C90.17683594 147.45265625 90.20132813 148.65921875 90.2265625 149.90234375 C90.25457897 158.4940597 89.30259235 165.79314815 83.84765625 172.68359375 C78.19085443 177.22720967 73.54840371 179.79717633 66.03125 179.5546875 C53.30045972 177.81165036 41.8632118 169.84719734 32.93359375 161.06640625 C30.20385586 158.68678846 30.20385586 158.68678846 26.77734375 158.24609375 C24.10893972 160.08052245 24.10893972 160.08052245 21.40234375 162.68359375 C10.43766908 172.40701698 -1.4142176 179.13442874 -16.32421875 178.68359375 C-22.85379541 177.95081561 -25.65722423 175.28881545 -29.734375 170.453125 C-36.89658458 160.49991111 -36.35388635 146.15993242 -34.546875 134.57421875 C-33.84744493 130.4490695 -33.05654016 126.34602297 -32.22265625 122.24609375 C-33.01027344 122.03855469 -33.79789063 121.83101563 -34.609375 121.6171875 C-48.52186104 117.68217666 -64.31834646 110.78046694 -72.1796875 97.8984375 C-74.61260499 91.7113552 -74.60301193 84.83073835 -72.21484375 78.62890625 C-64.36605404 65.66719067 -48.31611302 58.17377842 -34.22265625 54.24609375 C-33.23265625 54.24609375 -32.24265625 54.24609375 -31.22265625 54.24609375 C-31.42761719 53.55644531 -31.63257813 52.86679688 -31.84375 52.15625 C-36.0913122 37.34059046 -38.07223366 20.93670074 -30.41015625 6.93359375 C-21.77722265 -3.67258182 -12.44427702 -5.04403374 0 0 Z " fill="#5FD5F4" transform="translate(102.22265625,41.75390625)"/>
<path d="M0 0 C0.86488037 -0.00109772 1.72976074 -0.00219543 2.62084961 -0.00332642 C16.47473819 0.11145351 16.47473819 0.11145351 22.16259766 3.77148438 C26.38278599 8.32909217 28.54557401 13.63013548 30.45849609 19.47558594 C31.60613086 22.78397614 33.25704746 25.42046068 35.125 28.375 C37.32671221 32.11852748 37.38417344 33.76208346 36.3125 37.9375 C34.98412134 41.07613071 33.34752404 44.05315516 31.75 47.0625 C31.34458984 47.85398438 30.93917969 48.64546875 30.52148438 49.4609375 C29.18621995 51.99650854 27.75095101 54.45919928 26.3125 56.9375 C25.82096436 57.93515381 25.32942871 58.93280762 24.82299805 59.96069336 C20.73691576 67.11003347 20.73691576 67.11003347 16.4737854 68.56506348 C11.89950527 69.45824648 7.35655524 69.46106151 2.71264648 69.31665039 C0.24647914 69.24990471 -2.19996459 69.29571948 -4.66601562 69.35351562 C-15.90499805 69.3754542 -15.90499805 69.3754542 -20.19970703 65.91088867 C-22.04110594 63.33387298 -23.37978898 60.81810761 -24.6875 57.9375 C-25.5253737 56.49739967 -26.37354385 55.06321481 -27.234375 53.63671875 C-27.97429632 52.30254006 -28.70879747 50.96533913 -29.4375 49.625 C-30.18168044 48.27440262 -30.92645827 46.9241342 -31.671875 45.57421875 C-32.18331055 44.6294165 -32.18331055 44.6294165 -32.70507812 43.66552734 C-33.75939265 41.74754026 -33.75939265 41.74754026 -35.515625 39.33203125 C-37.15083563 35.99075086 -36.76209499 34.49226024 -35.6875 30.9375 C-34.30358327 27.94685742 -32.70666366 25.10424872 -31.0625 22.25 C-30.44181641 21.14108398 -30.44181641 21.14108398 -29.80859375 20.00976562 C-28.93613896 18.46772167 -28.03661888 16.94074169 -27.11352539 15.4284668 C-25.60592325 12.91386499 -25.60592325 12.91386499 -24.44702148 9.97192383 C-19.316434 -0.79379839 -10.69767062 -0.15602653 0 0 Z " fill="#232525" transform="translate(129.6875,95.0625)"/>
<path d="M0 0 C3.37573013 12.6027258 5.87634283 27.78461018 0 40 C-3.45155434 44.12502836 -5.43054969 45.79073996 -10.75 46.5 C-22.27052179 46.33330435 -32.90872789 37.38955116 -41 30 C-41.61488281 29.49984375 -42.22976562 28.9996875 -42.86328125 28.484375 C-44 27 -44 27 -43.9140625 25.0703125 C-42.77955198 22.50069465 -41.31587178 20.90579634 -39.375 18.875 C-37.15077942 16.5452828 -35.21087396 14.37670323 -33.63305664 11.55810547 C-31.25667223 7.48483003 -29.52070177 4.60562687 -25.03417969 2.81884766 C-21.57907875 2.12428637 -18.19671854 1.69524754 -14.6875 1.375 C-13.49576172 1.22933594 -12.30402344 1.08367187 -11.07617188 0.93359375 C-3.24732143 0 -3.24732143 0 0 0 Z " fill="#222424" transform="translate(181,166)"/>
<path d="M0 0 C1.54481929 3.69878738 3.05646767 7.41026943 4.5625 11.125 C5.21895508 12.69507812 5.21895508 12.69507812 5.88867188 14.296875 C6.50258789 15.82441406 6.50258789 15.82441406 7.12890625 17.3828125 C7.70233765 18.78104248 7.70233765 18.78104248 8.28735352 20.20751953 C9.47850283 24.87499669 8.26736836 28.83387465 6.40625 33.1640625 C6.09816406 33.89367187 5.79007813 34.62328125 5.47265625 35.375 C4.99119141 36.48875 4.99119141 36.48875 4.5 37.625 C3.86205212 39.1161071 3.22654891 40.60826299 2.59375 42.1015625 C2.31208984 42.75463379 2.03042969 43.40770508 1.74023438 44.08056641 C0.98732127 46.03287606 0.4646792 47.96164502 0 50 C-11.5785784 49.53685686 -22.62828986 43.80674811 -31 36 C-31.62003906 35.4328125 -32.24007812 34.865625 -32.87890625 34.28125 C-35.66794165 31.43397488 -37.39496778 29.1019777 -37.75 25.0625 C-37.28294561 19.91496435 -34.63605909 16.50897353 -31 13 C-22.53717687 6.3616661 -10.91585051 -0.26019621 0 0 Z " fill="#222424" transform="translate(74,105)"/>
<path d="M0 0 C3.92426511 3.36365581 6.91809681 7.58093378 7.34863281 12.84521484 C7.55096349 23.64167416 7.37886338 33.46507658 4.1875 43.875 C1.69957203 43.67080721 -0.78246059 43.44482274 -3.265625 43.1875 C-5.88122989 42.95705023 -8.42778275 42.82059548 -11.046875 42.75 C-22.22126587 42.24509585 -22.22126587 42.24509585 -26.3984375 38.6484375 C-28.41862347 35.81378921 -30.10433791 32.90611223 -31.8125 29.875 C-33.27721038 27.95177159 -34.77616048 26.05400607 -36.3125 24.1875 C-36.9828125 23.35863281 -37.653125 22.52976562 -38.34375 21.67578125 C-38.8284375 21.08152344 -39.313125 20.48726562 -39.8125 19.875 C-36.16273355 11.32085988 -26.67909728 6.09065564 -18.8125 1.875 C-18.19503906 1.53339844 -17.57757813 1.19179688 -16.94140625 0.83984375 C-11.44916499 -1.88725064 -5.67096973 -2.26838789 0 0 Z " fill="#222424" transform="translate(176.8125,49.125)"/>
<path d="M0 0 C2.48950927 0.20432257 4.9725605 0.43106714 7.45703125 0.69140625 C10.06651064 0.91869277 12.58759147 1.0419077 15.19921875 1.08984375 C26.32918597 1.51967713 26.32918597 1.51967713 30.84375 5.51953125 C33.09710114 8.58702125 35.03924525 11.74024523 37 15 C38.89767815 17.16977171 40.85890346 19.23035551 42.8828125 21.28125 C44 23 44 23 43.95703125 24.9453125 C39.81605699 33.83573072 27.62967483 40.15715888 18.9375 43.875 C14.65190603 45.32377367 10.47357678 45.7527242 6 45 C1.21794435 42.40105671 -0.23377516 39.03374081 -2 34 C-4.40621807 24.15939781 -4.60951607 9.21903213 0 0 Z " fill="#222424" transform="translate(79,167)"/>
<path d="M0 0 C12.68201396 2.92661861 26.71031802 9.08717428 34.9375 19.4375 C36.3728984 22.89934319 36.45682343 25.28015209 36 29 C30.38631886 40.22736227 18.310281 45.88752037 7 49.875 C4.00398614 50.86232275 2.30428348 51 -1 51 C-1.39832031 49.84242188 -1.79664063 48.68484375 -2.20703125 47.4921875 C-2.74197499 45.95305112 -3.27714315 44.41399273 -3.8125 42.875 C-4.07353516 42.11445313 -4.33457031 41.35390625 -4.60351562 40.5703125 C-5.80498889 37.12905574 -6.98815684 34.02137546 -8.76171875 30.8203125 C-11.58938102 24.38002178 -7.39573308 17.34017813 -5 11.1875 C-4.63132813 10.22134766 -4.26265625 9.25519531 -3.8828125 8.25976562 C-1.14158929 1.14158929 -1.14158929 1.14158929 0 0 Z " fill="#222324" transform="translate(187,104)"/>
<path d="M0 0 C11.14553582 3.06592409 20.69952278 10.17519483 29 18 C28.40964069 21.00825502 27.55575102 22.89607595 25.63671875 25.27734375 C25.16169922 25.87353516 24.68667969 26.46972656 24.19726562 27.08398438 C23.44993164 28.00147461 23.44993164 28.00147461 22.6875 28.9375 C22.20087891 29.54529297 21.71425781 30.15308594 21.21289062 30.77929688 C20.25227024 31.97780979 19.28082574 33.16773369 18.29833984 34.34838867 C16.84213928 36.11888799 16.84213928 36.11888799 15.39453125 38.796875 C11.35994648 42.50895626 6.2939764 42.59144543 1 43.3125 C-0.093125 43.48072266 -1.18625 43.64894531 -2.3125 43.82226562 C-6.60203394 44.46622139 -10.65502409 45 -15 45 C-18.43815349 33.41669718 -20.94115608 18.25049671 -16.03125 6.703125 C-12.16251513 0.31385075 -7.15297731 -1.22688608 0 0 Z " fill="#222324" transform="translate(94,48)"/>
<path d="M0 0 C4.00521387 2.88747977 7.46370991 6.48991981 9.6875 10.9375 C10.46240967 17.77194923 9.73329557 23.28124211 5.6875 28.9375 C1.7223706 32.70437293 -2.07511834 35.22042692 -7.625 35.25 C-12.67018093 35.10916572 -16.96241784 34.10680661 -20.78515625 30.578125 C-25.58356831 25.15018366 -26.79309111 20.44802542 -26.625 13.3671875 C-25.97207521 8.29069724 -22.8927228 5.3216628 -19.1875 2.125 C-13.43315849 -2.25330332 -6.82195302 -2.18817361 0 0 Z " fill="#60D8F8" transform="translate(138.3125,113.0625)"/>
<path d="M0 0 C3.55611365 1.18537122 3.75507707 1.82293512 5.48046875 5 C5.92197266 5.804375 6.36347656 6.60875 6.81835938 7.4375 C7.27017578 8.283125 7.72199219 9.12875 8.1875 10 C8.65091797 10.845625 9.11433594 11.69125 9.59179688 12.5625 C13 18.8267673 13 18.8267673 13 20 C0.33029613 19.22095672 0.33029613 19.22095672 -5 17 C-3.83348574 11.07136283 -2.24480642 5.61201606 0 0 Z " fill="#252D2F" transform="translate(87,141)"/>
<path d="M0 0 C7.92 0 15.84 0 24 0 C20.39758945 4.80321407 16.87208829 9.44460201 13 14 C8.94065655 12.44515973 6.92149038 9.78559333 4.25 6.4375 C3.45078125 5.44621094 2.6515625 4.45492187 1.828125 3.43359375 C0 1 0 1 0 0 Z " fill="#232525" transform="translate(118,171)"/>
<path d="M0 0 C2.67479093 2.34523216 3.88166223 4.58288792 5.1875 7.875 C5.53167969 8.71804687 5.87585938 9.56109375 6.23046875 10.4296875 C7.02757207 13.09209351 7.14355008 15.2378985 7 18 C4.93827387 18.33808686 2.8755797 18.67027361 0.8125 19 C-0.33605469 19.185625 -1.48460937 19.37125 -2.66796875 19.5625 C-5.50415393 19.93489477 -8.14719564 20.08596021 -11 20 C-7.36433437 13.31587248 -3.70775764 6.64443293 0 0 Z " fill="#252B2D" transform="translate(171,141)"/>
<path d="M0 0 C-3.63566563 6.68412752 -7.29224236 13.35556707 -11 20 C-14.16074764 18.41962618 -14.54298175 15.23621052 -15.625 12.0625 C-15.85445313 11.41603516 -16.08390625 10.76957031 -16.3203125 10.10351562 C-18 5.28941127 -18 5.28941127 -18 3 C-12.10646026 0.3211183 -6.39818692 -0.05399314 0 0 Z " fill="#242829" transform="translate(100,99)"/>
<path d="M0 0 C6.25107435 0.42954941 12.04204521 1.01401507 18 3 C16.49829538 8.98551772 15.05773837 14.61255621 12 20 C9.07540176 16.31822423 6.71642444 12.34204479 4.3125 8.3125 C3.89677734 7.62349609 3.48105469 6.93449219 3.05273438 6.22460938 C0 1.12669335 0 1.12669335 0 0 Z " fill="#232627" transform="translate(160,99)"/>
<path d="M0 0 C3.85438351 1.51918269 5.73605496 3.82695962 8.25 7.0625 C8.95640625 7.96097656 9.6628125 8.85945313 10.390625 9.78515625 C12 12 12 12 12 13 C4.74 13 -2.52 13 -10 13 C-6.61978763 7.08462835 -4.6702348 4.3518097 0 0 Z " fill="#222424" transform="translate(129,75)"/>
<path d="M0 0 C7.92 0 15.84 0 24 0 C20.61918819 3.38081181 20.61918819 3.38081181 16.62109375 3.3984375 C15.78255859 3.40230469 14.94402344 3.40617188 14.08007812 3.41015625 C13.20802734 3.39855469 12.33597656 3.38695312 11.4375 3.375 C10.12362305 3.39240234 10.12362305 3.39240234 8.78320312 3.41015625 C7.94595703 3.40628906 7.10871094 3.40242187 6.24609375 3.3984375 C5.09645142 3.39336182 5.09645142 3.39336182 3.92358398 3.38818359 C2 3 2 3 0 0 Z " fill="#2E474E" transform="translate(118,171)"/>
<path d="M0 0 C2.31 1.98 4.62 3.96 7 6 C4 6 4 6 1.8125 4.125 C0 2 0 2 0 0 Z " fill="#212121" transform="translate(34,217)"/>
<path d="M0 0 C0 3 0 3 -1.5 4.6875 C-1.995 5.120625 -2.49 5.55375 -3 6 C-3.66 5.67 -4.32 5.34 -5 5 C-3.35 3.35 -1.7 1.7 0 0 Z " fill="#222222" transform="translate(221,217)"/>
<path d="M0 0 C0.99 0.33 1.98 0.66 3 1 C1.02 1.33 -0.96 1.66 -3 2 C-2.01 1.34 -1.02 0.68 0 0 Z " fill="#212121" transform="translate(167,251)"/>
<path d="M0 0 C2.97 0.495 2.97 0.495 6 1 C4.125 1.625 4.125 1.625 2 2 C1.34 1.34 0.68 0.68 0 0 Z " fill="#222222" transform="translate(86,251)"/>
<path d="M0 0 C1.98 0.99 1.98 0.99 4 2 C3.67 2.66 3.34 3.32 3 4 C2.01 2.68 1.02 1.36 0 0 Z " fill="#222222" transform="translate(218,35)"/>
<path d="M0 0 C0.66 0.33 1.32 0.66 2 1 C0.68 1.99 -0.64 2.98 -2 4 C-1.34 2.68 -0.68 1.36 0 0 Z " fill="#212121" transform="translate(36,35)"/>
<path d="M0 0 C2.97 0.495 2.97 0.495 6 1 C5.01 1.33 4.02 1.66 3 2 C2.01 1.34 1.02 0.68 0 0 Z " fill="#212121" transform="translate(164,3)"/>
<path d="M0 0 C2.125 0.375 2.125 0.375 4 1 C2.02 1.33 0.04 1.66 -2 2 C-1.34 1.34 -0.68 0.68 0 0 Z " fill="#222222" transform="translate(88,3)"/>
<path d="M0 0 C1.98 0 3.96 0 6 0 C6 0.33 6 0.66 6 1 C4.02 1 2.04 1 0 1 C0 0.67 0 0.34 0 0 Z " fill="#212121" transform="translate(151,255)"/>
<path d="M0 0 C1.98 0 3.96 0 6 0 C6 0.33 6 0.66 6 1 C4.02 1 2.04 1 0 1 C0 0.67 0 0.34 0 0 Z " fill="#212121" transform="translate(99,255)"/>
<path d="M0 0 C2.475 0.495 2.475 0.495 5 1 C4.01 1.33 3.02 1.66 2 2 C1.34 1.34 0.68 0.68 0 0 Z " fill="#202020" transform="translate(69,244)"/>
<path d="M0 0 C1.98 0 3.96 0 6 0 C6 0.33 6 0.66 6 1 C4.02 1 2.04 1 0 1 C0 0.67 0 0.34 0 0 Z " fill="#212121" transform="translate(151,0)"/>
<path d="M0 0 C1.98 0 3.96 0 6 0 C6 0.33 6 0.66 6 1 C4.02 1 2.04 1 0 1 C0 0.67 0 0.34 0 0 Z " fill="#212121" transform="translate(99,0)"/>
<path d="M0 0 C3 1 3 1 3 1 Z " fill="#222222" transform="translate(157,254)"/>
<path d="M0 0 C3 1 3 1 3 1 Z " fill="#222222" transform="translate(96,254)"/>
<path d="M0 0 C3 1 3 1 3 1 Z " fill="#222222" transform="translate(161,253)"/>
<path d="M0 0 C3 1 3 1 3 1 Z " fill="#222222" transform="translate(92,253)"/>
<path d="M0 0 C3 1 3 1 3 1 Z " fill="#222222" transform="translate(173,249)"/>
<path d="M0 0 C3 1 3 1 3 1 Z " fill="#222222" transform="translate(80,249)"/>
<path d="M0 0 C3 1 3 1 3 1 Z " fill="#242424" transform="translate(182,245)"/>
<path d="M0 0 C0.66 0.66 1.32 1.32 2 2 C1.34 2 0.68 2 0 2 C0 1.34 0 0.68 0 0 Z " fill="#212121" transform="translate(32,215)"/>
<path d="M0 0 C0.33 0.66 0.66 1.32 1 2 C0.34 1.67 -0.32 1.34 -1 1 C-0.67 0.67 -0.34 0.34 0 0 Z " fill="#222222" transform="translate(223,215)"/>
<path d="" fill="#222222" transform="translate(0,0)"/>
<path d="" fill="#222222" transform="translate(0,0)"/>
<path d="" fill="#222222" transform="translate(0,0)"/>
<path d="M0 0 C0.66 0 1.32 0 2 0 C1.67 0.66 1.34 1.32 1 2 C0.67 1.34 0.34 0.68 0 0 Z " fill="#222222" transform="translate(222,39)"/>
<path d="M0 0 C0.99 0.495 0.99 0.495 2 1 C1.01 1.495 1.01 1.495 0 2 C0 1.34 0 0.68 0 0 Z " fill="#212121" transform="translate(32,39)"/>
<path d="M0 0 C3 1 3 1 3 1 Z " fill="#202020" transform="translate(73,9)"/>
<path d="M0 0 C3 1 3 1 3 1 Z " fill="#232323" transform="translate(173,6)"/>
<path d="M0 0 C3 1 3 1 3 1 Z " fill="#222222" transform="translate(80,6)"/>
<path d="M0 0 C3 1 3 1 3 1 Z " fill="#222222" transform="translate(161,2)"/>
<path d="M0 0 C3 1 3 1 3 1 Z " fill="#222222" transform="translate(92,2)"/>
<path d="M0 0 C3 1 3 1 3 1 Z " fill="#222222" transform="translate(157,1)"/>
<path d="M0 0 C3 1 3 1 3 1 Z " fill="#212121" transform="translate(96,1)"/>
<path d="M0 0 C2 1 2 1 2 1 Z " fill="#232323" transform="translate(171,250)"/>
<path d="M0 0 C2 1 2 1 2 1 Z " fill="#222222" transform="translate(83,250)"/>
<path d="M0 0 C2 1 2 1 2 1 Z " fill="#222222" transform="translate(176,248)"/>
<path d="M0 0 C2 1 2 1 2 1 Z " fill="#222222" transform="translate(78,248)"/>
<path d="M0 0 C2 1 2 1 2 1 Z " fill="#222222" transform="translate(178,247)"/>
<path d="M0 0 C2 1 2 1 2 1 Z " fill="#222222" transform="translate(76,247)"/>
<path d="M0 0 C2 1 2 1 2 1 Z " fill="#242424" transform="translate(180,246)"/>
<path d="M0 0 C2 1 2 1 2 1 Z " fill="#242424" transform="translate(74,246)"/>
<path d="M0 0 C2 1 2 1 2 1 Z " fill="#232323" transform="translate(185,244)"/>
<path d="M0 0 C2 1 2 1 2 1 Z " fill="#1D1D1D" transform="translate(188,242)"/>
<path d="M0 0 C2 1 2 1 2 1 Z " fill="#1F1F1F" transform="translate(66,242)"/>
<path d="M0 0 C2 1 2 1 2 1 Z " fill="#222222" transform="translate(190,241)"/>
<path d="M0 0 C2 1 2 1 2 1 Z " fill="#222222" transform="translate(64,241)"/>
<path d="M0 0 C2 1 2 1 2 1 Z " fill="#222222" transform="translate(192,240)"/>
<path d="M0 0 C2 1 2 1 2 1 Z " fill="#222222" transform="translate(62,240)"/>
<path d="M0 0 C2 1 2 1 2 1 Z " fill="#222222" transform="translate(195,238)"/>
<path d="M0 0 C2 1 2 1 2 1 Z " fill="#212121" transform="translate(59,238)"/>
<path d="M0 0 C2 1 2 1 2 1 Z " fill="#222222" transform="translate(57,237)"/>
<path d="M0 0 C2 1 2 1 2 1 Z " fill="#222222" transform="translate(204,232)"/>
<path d="M0 0 C2 1 2 1 2 1 Z " fill="#222222" transform="translate(50,232)"/>
<path d="" fill="#222222" transform="translate(0,0)"/>
<path d="" fill="#212121" transform="translate(0,0)"/>
<path d="" fill="#212121" transform="translate(0,0)"/>
<path d="" fill="#212121" transform="translate(0,0)"/>
<path d="" fill="#202020" transform="translate(0,0)"/>
<path d="" fill="#212121" transform="translate(0,0)"/>
<path d="" fill="#212121" transform="translate(0,0)"/>
<path d="" fill="#202020" transform="translate(0,0)"/>
<path d="" fill="#212121" transform="translate(0,0)"/>
<path d="" fill="#212121" transform="translate(0,0)"/>
<path d="M0 0 C2 1 2 1 2 1 Z " fill="#222222" transform="translate(209,27)"/>
<path d="M0 0 C2 1 2 1 2 1 Z " fill="#222222" transform="translate(45,27)"/>
<path d="M0 0 C2 1 2 1 2 1 Z " fill="#232323" transform="translate(201,21)"/>
<path d="M0 0 C2 1 2 1 2 1 Z " fill="#232323" transform="translate(53,21)"/>
<path d="M0 0 C2 1 2 1 2 1 Z " fill="#222222" transform="translate(197,18)"/>
<path d="M0 0 C2 1 2 1 2 1 Z " fill="#222222" transform="translate(57,18)"/>
<path d="M0 0 C2 1 2 1 2 1 Z " fill="#232323" transform="translate(195,17)"/>
<path d="M0 0 C2 1 2 1 2 1 Z " fill="#232323" transform="translate(59,17)"/>
<path d="M0 0 C2 1 2 1 2 1 Z " fill="#242424" transform="translate(192,15)"/>
<path d="M0 0 C2 1 2 1 2 1 Z " fill="#222222" transform="translate(62,15)"/>
<path d="M0 0 C2 1 2 1 2 1 Z " fill="#212121" transform="translate(190,14)"/>
<path d="M0 0 C2 1 2 1 2 1 Z " fill="#222222" transform="translate(64,14)"/>
<path d="M0 0 C2 1 2 1 2 1 Z " fill="#232323" transform="translate(185,11)"/>
<path d="M0 0 C2 1 2 1 2 1 Z " fill="#222222" transform="translate(69,11)"/>
<path d="M0 0 C2 1 2 1 2 1 Z " fill="#222222" transform="translate(183,10)"/>
<path d="M0 0 C2 1 2 1 2 1 Z " fill="#222222" transform="translate(71,10)"/>
<path d="M0 0 C2 1 2 1 2 1 Z " fill="#222222" transform="translate(180,9)"/>
<path d="M0 0 C2 1 2 1 2 1 Z " fill="#232323" transform="translate(178,8)"/>
<path d="M0 0 C2 1 2 1 2 1 Z " fill="#232323" transform="translate(76,8)"/>
<path d="M0 0 C2 1 2 1 2 1 Z " fill="#222222" transform="translate(176,7)"/>
<path d="M0 0 C2 1 2 1 2 1 Z " fill="#222222" transform="translate(78,7)"/>
<path d="M0 0 C2 1 2 1 2 1 Z " fill="#222222" transform="translate(171,5)"/>
<path d="M0 0 C2 1 2 1 2 1 Z " fill="#212121" transform="translate(83,5)"/>
<path d="" fill="#222222" transform="translate(0,0)"/>
<path d="" fill="#222222" transform="translate(0,0)"/>
<path d="" fill="#222222" transform="translate(0,0)"/>
<path d="" fill="#222222" transform="translate(0,0)"/>
<path d="" fill="#232323" transform="translate(0,0)"/>
<path d="" fill="#232323" transform="translate(0,0)"/>
<path d="" fill="#232323" transform="translate(0,0)"/>
<path d="" fill="#232323" transform="translate(0,0)"/>
<path d="" fill="#222222" transform="translate(0,0)"/>
<path d="" fill="#222222" transform="translate(0,0)"/>
<path d="" fill="#222222" transform="translate(0,0)"/>
<path d="" fill="#222222" transform="translate(0,0)"/>
<path d="" fill="#222222" transform="translate(0,0)"/>
<path d="" fill="#212121" transform="translate(0,0)"/>
<path d="" fill="#242424" transform="translate(0,0)"/>
<path d="" fill="#212121" transform="translate(0,0)"/>
<path d="" fill="#212121" transform="translate(0,0)"/>
<path d="" fill="#212121" transform="translate(0,0)"/>
<path d="" fill="#222222" transform="translate(0,0)"/>
<path d="" fill="#222222" transform="translate(0,0)"/>
<path d="" fill="#222222" transform="translate(0,0)"/>
<path d="" fill="#222222" transform="translate(0,0)"/>
<path d="" fill="#212121" transform="translate(0,0)"/>
<path d="" fill="#212121" transform="translate(0,0)"/>
<path d="" fill="#222222" transform="translate(0,0)"/>
<path d="" fill="#232323" transform="translate(0,0)"/>
<path d="" fill="#232323" transform="translate(0,0)"/>
<path d="" fill="#222222" transform="translate(0,0)"/>
<path d="" fill="#222222" transform="translate(0,0)"/>
<path d="" fill="#222222" transform="translate(0,0)"/>
<path d="" fill="#222222" transform="translate(0,0)"/>
<path d="" fill="#222222" transform="translate(0,0)"/>
<path d="" fill="#222222" transform="translate(0,0)"/>
<path d="" fill="#222222" transform="translate(0,0)"/>
<path d="" fill="#222222" transform="translate(0,0)"/>
<path d="" fill="#222222" transform="translate(0,0)"/>
<path d="" fill="#222222" transform="translate(0,0)"/>
<path d="" fill="#222222" transform="translate(0,0)"/>
<path d="" fill="#222222" transform="translate(0,0)"/>
<path d="" fill="#222222" transform="translate(0,0)"/>
<path d="" fill="#222222" transform="translate(0,0)"/>
<path d="" fill="#222222" transform="translate(0,0)"/>
<path d="" fill="#222222" transform="translate(0,0)"/>
<path d="" fill="#222222" transform="translate(0,0)"/>
<path d="" fill="#212121" transform="translate(0,0)"/>
<path d="" fill="#212121" transform="translate(0,0)"/>
<path d="" fill="#212121" transform="translate(0,0)"/>
<path d="" fill="#222222" transform="translate(0,0)"/>
<path d="" fill="#232323" transform="translate(0,0)"/>
<path d="" fill="#222222" transform="translate(0,0)"/>
<path d="" fill="#222222" transform="translate(0,0)"/>
<path d="" fill="#222222" transform="translate(0,0)"/>
<path d="" fill="#212121" transform="translate(0,0)"/>
<path d="" fill="#222222" transform="translate(0,0)"/>
<path d="" fill="#232323" transform="translate(0,0)"/>
<path d="" fill="#242424" transform="translate(0,0)"/>
<path d="" fill="#222222" transform="translate(0,0)"/>
<path d="" fill="#222222" transform="translate(0,0)"/>
<path d="" fill="#222222" transform="translate(0,0)"/>
<path d="" fill="#222222" transform="translate(0,0)"/>
<path d="" fill="#232323" transform="translate(0,0)"/>
<path d="" fill="#222222" transform="translate(0,0)"/>
<path d="" fill="#222222" transform="translate(0,0)"/>
<path d="" fill="#222222" transform="translate(0,0)"/>
<path d="" fill="#212121" transform="translate(0,0)"/>
<path d="" fill="#222222" transform="translate(0,0)"/>
<path d="" fill="#222222" transform="translate(0,0)"/>
<path d="" fill="#212121" transform="translate(0,0)"/>
<path d="" fill="#222222" transform="translate(0,0)"/>
<path d="" fill="#222222" transform="translate(0,0)"/>
<path d="" fill="#222222" transform="translate(0,0)"/>
<path d="" fill="#222222" transform="translate(0,0)"/>
<path d="" fill="#222222" transform="translate(0,0)"/>
<path d="" fill="#222222" transform="translate(0,0)"/>
<path d="" fill="#222222" transform="translate(0,0)"/>
<path d="" fill="#222222" transform="translate(0,0)"/>
<path d="" fill="#222222" transform="translate(0,0)"/>
<path d="" fill="#222222" transform="translate(0,0)"/>
</svg>
